<svg xmlns="http://www.w3.org/2000/svg" width="600" height="600" viewBox="0 0 600 600">
  <defs>
    <pattern id="doodle" x="0" y="0" width="600" height="600" patternUnits="userSpaceOnUse">
      <rect width="600" height="600" fill="transparent"/>
      
      <!-- LARGE ICONS -->
      
      <!-- Large Smiley -->
      <g transform="translate(45, 55) rotate(-5) scale(1.6)">
        <circle cx="0" cy="0" r="14" fill="none" stroke="#ffffff" stroke-width="1.4"/>
        <circle cx="-5" cy="-4" r="2" fill="#ffffff"/>
        <circle cx="5" cy="-4" r="2" fill="#ffffff"/>
        <path d="M-7 4 Q0 10 7 4" fill="none" stroke="#ffffff" stroke-width="1.4" stroke-linecap="round"/>
      </g>
      
      <!-- Large Heart -->
      <g transform="translate(280, 40) rotate(12) scale(1.8)">
        <path d="M0 5 C0 0, -12 -6, -12 3 C-12 10, 0 18, 0 18 C0 18, 12 10, 12 3 C12 -6, 0 0, 0 5" fill="none" stroke="#ffffff" stroke-width="1.3"/>
      </g>
      
      <!-- Large Camera -->
      <g transform="translate(520, 80) rotate(-8) scale(1.5)">
        <rect x="-14" y="-9" width="28" height="18" rx="2.5" fill="none" stroke="#ffffff" stroke-width="1.4"/>
        <circle cx="0" cy="0" r="6" fill="none" stroke="#ffffff" stroke-width="1.4"/>
        <rect x="-5" y="-13" width="10" height="4.5" rx="1" fill="none" stroke="#ffffff" stroke-width="1.3"/>
      </g>
      
      <!-- Large Headphones -->
      <g transform="translate(70, 220) rotate(5) scale(1.7)">
        <path d="M-18 18 L-18 0 Q-18 -18 0 -18 Q18 -18 18 0 L18 18" fill="none" stroke="#ffffff" stroke-width="1.3"/>
        <rect x="-22" y="10" width="9" height="14" rx="2.5" fill="none" stroke="#ffffff" stroke-width="1.3"/>
        <rect x="13" y="10" width="9" height="14" rx="2.5" fill="none" stroke="#ffffff" stroke-width="1.3"/>
      </g>
      
      <!-- Large Speech Bubble -->
      <g transform="translate(320, 200) scale(1.9) rotate(-3)">
        <path d="M-20 -14 Q-20 -20 -8 -20 L14 -20 Q26 -20 26 -10 L26 2 Q26 14 14 14 L-2 14 L-14 24 L-10 14 L-8 14 Q-20 14 -20 2 Z" fill="none" stroke="#ffffff" stroke-width="1.2"/>
        <circle cx="-6" cy="-3" r="2.2" fill="#ffffff"/>
        <circle cx="4" cy="-3" r="2.2" fill="#ffffff"/>
        <circle cx="14" cy="-3" r="2.2" fill="#ffffff"/>
      </g>
      
      <!-- Large Rocket -->
      <g transform="translate(530, 380) rotate(-20) scale(1.6)">
        <path d="M-14 25 Q-14 -5 0 -25 Q14 -5 14 25 L6 25 L0 38 L-6 25 Z" fill="none" stroke="#ffffff" stroke-width="1.3"/>
        <circle cx="0" cy="0" r="5" fill="none" stroke="#ffffff" stroke-width="1.1"/>
        <path d="M-14 15 Q-22 15 -20 22" fill="none" stroke="#ffffff" stroke-width="1.3"/>
        <path d="M14 15 Q22 15 20 22" fill="none" stroke="#ffffff" stroke-width="1.3"/>
      </g>
      
      <!-- Large Globe -->
      <g transform="translate(80, 480) rotate(8) scale(1.7)">
        <circle cx="0" cy="0" r="16" fill="none" stroke="#ffffff" stroke-width="1.3"/>
        <ellipse cx="0" cy="0" rx="8" ry="16" fill="none" stroke="#ffffff" stroke-width="1"/>
        <line x1="-16" y1="0" x2="16" y2="0" stroke="#ffffff" stroke-width="1"/>
        <path d="M-13 -8 Q0 -5 13 -8" fill="none" stroke="#ffffff" stroke-width="1"/>
        <path d="M-13 8 Q0 5 13 8" fill="none" stroke="#ffffff" stroke-width="1"/>
      </g>
      
      <!-- Large Sun -->
      <g transform="translate(350, 520) rotate(15) scale(1.6)">
        <circle cx="0" cy="0" r="10" fill="none" stroke="#ffffff" stroke-width="1.4"/>
        <line x1="0" y1="-16" x2="0" y2="-20" stroke="#ffffff" stroke-width="1.4" stroke-linecap="round"/>
        <line x1="0" y1="16" x2="0" y2="20" stroke="#ffffff" stroke-width="1.4" stroke-linecap="round"/>
        <line x1="16" y1="0" x2="20" y2="0" stroke="#ffffff" stroke-width="1.4" stroke-linecap="round"/>
        <line x1="-16" y1="0" x2="-20" y2="0" stroke="#ffffff" stroke-width="1.4" stroke-linecap="round"/>
        <line x1="11" y1="-11" x2="14" y2="-14" stroke="#ffffff" stroke-width="1.4" stroke-linecap="round"/>
        <line x1="-11" y1="11" x2="-14" y2="14" stroke="#ffffff" stroke-width="1.4" stroke-linecap="round"/>
        <line x1="11" y1="11" x2="14" y2="14" stroke="#ffffff" stroke-width="1.4" stroke-linecap="round"/>
        <line x1="-11" y1="-11" x2="-14" y2="-14" stroke="#ffffff" stroke-width="1.4" stroke-linecap="round"/>
      </g>
      
      <!-- MEDIUM ICONS -->
      
      <!-- Medium Clock -->
      <g transform="translate(160, 35) rotate(15) scale(1.1)">
        <circle cx="0" cy="0" r="12" fill="none" stroke="#ffffff" stroke-width="1.4"/>
        <line x1="0" y1="0" x2="0" y2="-7" stroke="#ffffff" stroke-width="1.4" stroke-linecap="round"/>
        <line x1="0" y1="0" x2="5" y2="3" stroke="#ffffff" stroke-width="1.4" stroke-linecap="round"/>
      </g>
      
      <!-- Medium Phone -->
      <g transform="translate(420, 55) rotate(-10) scale(1.15)">
        <rect x="-9" y="-15" width="18" height="30" rx="3" fill="none" stroke="#ffffff" stroke-width="1.3"/>
        <line x1="-4" y1="10" x2="4" y2="10" stroke="#ffffff" stroke-width="1.3" stroke-linecap="round"/>
      </g>
      
      <!-- Medium Gift Box -->
      <g transform="translate(180, 130) rotate(-8) scale(1.2)">
        <rect x="-12" y="-8" width="24" height="18" fill="none" stroke="#ffffff" stroke-width="1.3"/>
        <rect x="-14" y="-12" width="28" height="6" fill="none" stroke="#ffffff" stroke-width="1.3"/>
        <line x1="0" y1="-12" x2="0" y2="10" stroke="#ffffff" stroke-width="1.3"/>
        <path d="M-5 -12 Q0 -18 5 -12" fill="none" stroke="#ffffff" stroke-width="1.2"/>
      </g>
      
      <!-- Medium Controller -->
      <g transform="translate(480, 180) rotate(10) scale(1.25)">
        <rect x="-18" y="-10" width="36" height="20" rx="9" fill="none" stroke="#ffffff" stroke-width="1.3"/>
        <circle cx="-8" cy="0" r="3.5" fill="none" stroke="#ffffff" stroke-width="1.1"/>
        <line x1="5" y1="-3" x2="13" y2="-3" stroke="#ffffff" stroke-width="1.3" stroke-linecap="round"/>
        <line x1="9" y1="-7" x2="9" y2="1" stroke="#ffffff" stroke-width="1.3" stroke-linecap="round"/>
      </g>
      
      <!-- Medium Coffee -->
      <g transform="translate(220, 310) rotate(6) scale(1.2)">
        <path d="M-14 -14 L-10 14 L10 14 L14 -14 Z" fill="none" stroke="#ffffff" stroke-width="1.3"/>
        <path d="M14 -8 Q24 -8 24 2 Q24 10 14 10" fill="none" stroke="#ffffff" stroke-width="1.3"/>
        <path d="M-7 -20 Q-3 -25 1 -20" fill="none" stroke="#ffffff" stroke-width="1.1"/>
        <path d="M3 -22 Q7 -27 11 -22" fill="none" stroke="#ffffff" stroke-width="1.1"/>
      </g>
      
      <!-- Medium Lightbulb -->
      <g transform="translate(560, 280) rotate(-12) scale(1.3)">
        <circle cx="0" cy="-5" r="12" fill="none" stroke="#ffffff" stroke-width="1.3"/>
        <path d="M-6 7 L6 7" stroke="#ffffff" stroke-width="1.3" stroke-linecap="round"/>
        <path d="M-5 11 L5 11" stroke="#ffffff" stroke-width="1.3" stroke-linecap="round"/>
        <path d="M-4 15 L4 15" stroke="#ffffff" stroke-width="1.3" stroke-linecap="round"/>
      </g>
      
      <!-- Medium Bicycle -->
      <g transform="translate(420, 320) rotate(-5) scale(1.15)">
        <circle cx="-15" cy="8" r="12" fill="none" stroke="#ffffff" stroke-width="1.3"/>
        <circle cx="15" cy="8" r="12" fill="none" stroke="#ffffff" stroke-width="1.3"/>
        <path d="M-15 8 L0 -10 L15 8 M0 -10 L0 -20 L7 -20" fill="none" stroke="#ffffff" stroke-width="1.3"/>
      </g>
      
      <!-- Medium Envelope -->
      <g transform="translate(50, 360) rotate(12) scale(1.1)">
        <rect x="-14" y="-10" width="28" height="20" rx="2" fill="none" stroke="#ffffff" stroke-width="1.3"/>
        <path d="M-14 -8 L0 4 L14 -8" fill="none" stroke="#ffffff" stroke-width="1.3"/>
      </g>
      
      <!-- Medium Diamond -->
      <g transform="translate(180, 450) rotate(5) scale(1.2)">
        <path d="M0 -20 L-12 -5 L0 20 L12 -5 Z" fill="none" stroke="#ffffff" stroke-width="1.3"/>
        <line x1="-12" y1="-5" x2="12" y2="-5" stroke="#ffffff" stroke-width="1"/>
        <line x1="0" y1="-20" x2="0" y2="20" stroke="#ffffff" stroke-width="1"/>
      </g>
      
      <!-- Medium Microphone -->
      <g transform="translate(270, 560) rotate(-6) scale(1.15)">
        <rect x="-8" y="-14" width="16" height="26" rx="8" fill="none" stroke="#ffffff" stroke-width="1.3"/>
        <path d="M-14 5 Q-14 24 0 24 Q14 24 14 5" fill="none" stroke="#ffffff" stroke-width="1.3"/>
        <line x1="0" y1="24" x2="0" y2="34" stroke="#ffffff" stroke-width="1.3"/>
        <line x1="-8" y1="34" x2="8" y2="34" stroke="#ffffff" stroke-width="1.3" stroke-linecap="round"/>
      </g>
      
      <!-- Medium Film Reel -->
      <g transform="translate(550, 500) rotate(20) scale(1.2)">
        <circle cx="0" cy="0" r="15" fill="none" stroke="#ffffff" stroke-width="1.3"/>
        <circle cx="0" cy="0" r="5" fill="none" stroke="#ffffff" stroke-width="1.3"/>
        <circle cx="0" cy="-10" r="2.5" fill="#ffffff"/>
        <circle cx="0" cy="10" r="2.5" fill="#ffffff"/>
        <circle cx="10" cy="0" r="2.5" fill="#ffffff"/>
        <circle cx="-10" cy="0" r="2.5" fill="#ffffff"/>
      </g>
      
      <!-- SMALL ICONS -->
      
      <!-- Small Star -->
      <g transform="translate(120, 80) rotate(25) scale(0.7)">
        <path d="M0 -12 L3 -4 L12 -4 L5 2 L8 12 L0 6 L-8 12 L-5 2 L-12 -4 L-3 -4 Z" fill="none" stroke="#ffffff" stroke-width="1.6"/>
      </g>
      
      <!-- Small Music Note -->
      <g transform="translate(350, 95) rotate(-15) scale(0.75)">
        <ellipse cx="0" cy="6" rx="5" ry="4" fill="#ffffff"/>
        <line x1="5" y1="6" x2="5" y2="-14" stroke="#ffffff" stroke-width="2"/>
        <path d="M5 -14 Q13 -10 5 -6" fill="none" stroke="#ffffff" stroke-width="1.5"/>
      </g>
      
      <!-- Small Airplane -->
      <g transform="translate(550, 140) rotate(30) scale(0.8)">
        <path d="M-14 0 L4 -12 L10 -10 L-2 0 L10 8 L4 10 L-6 3 L-14 14 L-18 8 Z" fill="none" stroke="#ffffff" stroke-width="1.4"/>
      </g>
      
      <!-- Small Pizza -->
      <g transform="translate(30, 140) rotate(-12) scale(0.7)">
        <path d="M0 18 L-18 -18 L18 -18 Z" fill="none" stroke="#ffffff" stroke-width="1.5"/>
        <circle cx="-6" cy="-6" r="3" fill="none" stroke="#ffffff" stroke-width="1.2"/>
        <circle cx="6" cy="-4" r="3" fill="none" stroke="#ffffff" stroke-width="1.2"/>
        <circle cx="0" cy="6" r="2.5" fill="none" stroke="#ffffff" stroke-width="1.2"/>
      </g>
      
      <!-- Small Book -->
      <g transform="translate(380, 150) rotate(8) scale(0.75)">
        <path d="M-12 -18 L-12 18 Q0 12 12 18 L12 -18 Q0 -12 -12 -18" fill="none" stroke="#ffffff" stroke-width="1.4"/>
        <line x1="0" y1="-15" x2="0" y2="15" stroke="#ffffff" stroke-width="1"/>
      </g>
      
      <!-- Small Cloud -->
      <g transform="translate(280, 130) rotate(-5) scale(0.7)">
        <path d="M-25 10 Q-32 -8 -15 -10 Q-12 -22 5 -18 Q22 -28 25 -8 Q38 -2 25 12 L-20 12 Q-32 12 -25 10" fill="none" stroke="#ffffff" stroke-width="1.5"/>
      </g>
      
      <!-- Small Wifi -->
      <g transform="translate(140, 190) rotate(10) scale(0.7)">
        <circle cx="0" cy="14" r="3" fill="#ffffff"/>
        <path d="M-10 6 Q0 -4 10 6" fill="none" stroke="#ffffff" stroke-width="1.6"/>
        <path d="M-18 -2 Q0 -16 18 -2" fill="none" stroke="#ffffff" stroke-width="1.6"/>
        <path d="M-26 -10 Q0 -28 26 -10" fill="none" stroke="#ffffff" stroke-width="1.6"/>
      </g>
      
      <!-- Small Lock -->
      <g transform="translate(35, 290) rotate(-8) scale(0.75)">
        <rect x="-10" y="-7" width="20" height="17" rx="2" fill="none" stroke="#ffffff" stroke-width="1.4"/>
        <path d="M-6 -7 L-6 -14 Q0 -22 6 -14 L6 -7" fill="none" stroke="#ffffff" stroke-width="1.4"/>
        <circle cx="0" cy="3" r="2.5" fill="#ffffff"/>
      </g>
      
      <!-- Small Trophy -->
      <g transform="translate(130, 280) rotate(15) scale(0.7)">
        <path d="M-10 -18 L-10 5 Q-10 16 0 16 Q10 16 10 5 L10 -18 Z" fill="none" stroke="#ffffff" stroke-width="1.5"/>
        <path d="M-10 -12 Q-20 -12 -20 -2 Q-20 4 -10 2" fill="none" stroke="#ffffff" stroke-width="1.4"/>
        <path d="M10 -12 Q20 -12 20 -2 Q20 4 10 2" fill="none" stroke="#ffffff" stroke-width="1.4"/>
        <rect x="-4" y="16" width="8" height="5" fill="none" stroke="#ffffff" stroke-width="1.3"/>
        <rect x="-7" y="21" width="14" height="4" fill="none" stroke="#ffffff" stroke-width="1.3"/>
      </g>
      
      <!-- Small Thumbs Up -->
      <g transform="translate(360, 250) rotate(-10) scale(0.7)">
        <path d="M-10 14 L-10 -2 L0 -2 L5 -16 L10 -16 L10 -2 L16 -2 L16 14 Z" fill="none" stroke="#ffffff" stroke-width="1.5"/>
      </g>
      
      <!-- Small Shopping Bag -->
      <g transform="translate(150, 380) rotate(5) scale(0.75)">
        <rect x="-12" y="-14" width="24" height="30" rx="2" fill="none" stroke="#ffffff" stroke-width="1.4"/>
        <path d="M-6 -14 L-6 -20 Q0 -28 6 -20 L6 -14" fill="none" stroke="#ffffff" stroke-width="1.4"/>
      </g>
      
      <!-- Small Bell -->
      <g transform="translate(480, 420) rotate(12) scale(0.75)">
        <path d="M-14 12 Q-14 -10 0 -14 Q14 -10 14 12 L-14 12" fill="none" stroke="#ffffff" stroke-width="1.4"/>
        <path d="M-18 12 L18 12" stroke="#ffffff" stroke-width="1.4" stroke-linecap="round"/>
        <circle cx="0" cy="18" r="4" fill="none" stroke="#ffffff" stroke-width="1.4"/>
        <line x1="0" y1="-20" x2="0" y2="-14" stroke="#ffffff" stroke-width="1.4"/>
      </g>
      
      <!-- Small Pencil -->
      <g transform="translate(320, 420) rotate(25) scale(0.7)">
        <path d="M-10 22 L10 -22 L15 -18 L-5 26 Z" fill="none" stroke="#ffffff" stroke-width="1.4"/>
        <path d="M10 -22 L14 -26 L19 -22 L15 -18" fill="none" stroke="#ffffff" stroke-width="1.4"/>
      </g>
      
      <!-- Small Calendar -->
      <g transform="translate(50, 540) rotate(-10) scale(0.75)">
        <rect x="-14" y="-12" width="28" height="26" rx="2" fill="none" stroke="#ffffff" stroke-width="1.4"/>
        <line x1="-14" y1="-4" x2="14" y2="-4" stroke="#ffffff" stroke-width="1.4"/>
        <line x1="-8" y1="-18" x2="-8" y2="-10" stroke="#ffffff" stroke-width="1.4" stroke-linecap="round"/>
        <line x1="8" y1="-18" x2="8" y2="-10" stroke="#ffffff" stroke-width="1.4" stroke-linecap="round"/>
        <circle cx="-5" cy="6" r="2.2" fill="#ffffff"/>
        <circle cx="5" cy="6" r="2.2" fill="#ffffff"/>
      </g>
      
      <!-- Small Play Button -->
      <g transform="translate(460, 560) rotate(8) scale(0.75)">
        <circle cx="0" cy="0" r="14" fill="none" stroke="#ffffff" stroke-width="1.4"/>
        <path d="M-5 -8 L10 0 L-5 8 Z" fill="#ffffff"/>
      </g>
      
      <!-- Small Location Pin -->
      <g transform="translate(160, 540) rotate(-5) scale(0.7)">
        <path d="M0 22 Q-15 2 0 -15 Q15 2 0 22" fill="none" stroke="#ffffff" stroke-width="1.5"/>
        <circle cx="0" cy="-3" r="5" fill="none" stroke="#ffffff" stroke-width="1.4"/>
      </g>
      
      <!-- TINY ICONS AND FILLERS -->
      
      <!-- Tiny Stars -->
      <g transform="translate(230, 60) scale(0.4)">
        <path d="M0 -10 L3 -3 L10 -3 L5 2 L7 10 L0 5 L-7 10 L-5 2 L-10 -3 L-3 -3 Z" fill="#ffffff"/>
      </g>
      <g transform="translate(490, 250) rotate(30) scale(0.35)">
        <path d="M0 -10 L3 -3 L10 -3 L5 2 L7 10 L0 5 L-7 10 L-5 2 L-10 -3 L-3 -3 Z" fill="#ffffff"/>
      </g>
      <g transform="translate(100, 450) rotate(-20) scale(0.45)">
        <path d="M0 -10 L3 -3 L10 -3 L5 2 L7 10 L0 5 L-7 10 L-5 2 L-10 -3 L-3 -3 Z" fill="#ffffff"/>
      </g>
      <g transform="translate(380, 480) rotate(15) scale(0.38)">
        <path d="M0 -10 L3 -3 L10 -3 L5 2 L7 10 L0 5 L-7 10 L-5 2 L-10 -3 L-3 -3 Z" fill="#ffffff"/>
      </g>
      <g transform="translate(560, 40) rotate(-10) scale(0.4)">
        <path d="M0 -10 L3 -3 L10 -3 L5 2 L7 10 L0 5 L-7 10 L-5 2 L-10 -3 L-3 -3 Z" fill="#ffffff"/>
      </g>
      
      <!-- Tiny Hearts -->
      <g transform="translate(200, 200) rotate(20) scale(0.5)">
        <path d="M0 4 C0 0, -8 -4, -8 2 C-8 7, 0 12, 0 12 C0 12, 8 7, 8 2 C8 -4, 0 0, 0 4" fill="#ffffff"/>
      </g>
      <g transform="translate(440, 380) rotate(-15) scale(0.45)">
        <path d="M0 4 C0 0, -8 -4, -8 2 C-8 7, 0 12, 0 12 C0 12, 8 7, 8 2 C8 -4, 0 0, 0 4" fill="#ffffff"/>
      </g>
      <g transform="translate(85, 180) rotate(10) scale(0.5)">
        <path d="M0 4 C0 0, -8 -4, -8 2 C-8 7, 0 12, 0 12 C0 12, 8 7, 8 2 C8 -4, 0 0, 0 4" fill="#ffffff"/>
      </g>
      
      <!-- Tiny Diamonds -->
      <g transform="translate(300, 35) rotate(45) scale(0.5)">
        <rect x="-6" y="-6" width="12" height="12" fill="none" stroke="#ffffff" stroke-width="2"/>
      </g>
      <g transform="translate(95, 340) rotate(45) scale(0.4)">
        <rect x="-6" y="-6" width="12" height="12" fill="none" stroke="#ffffff" stroke-width="2.2"/>
      </g>
      <g transform="translate(530, 450) rotate(45) scale(0.45)">
        <rect x="-6" y="-6" width="12" height="12" fill="none" stroke="#ffffff" stroke-width="2"/>
      </g>
      <g transform="translate(250, 480) rotate(45) scale(0.38)">
        <rect x="-6" y="-6" width="12" height="12" fill="none" stroke="#ffffff" stroke-width="2.2"/>
      </g>
      
      <!-- Tiny Triangles -->
      <g transform="translate(440, 120) rotate(15) scale(0.5)">
        <path d="M0 -10 L9 8 L-9 8 Z" fill="none" stroke="#ffffff" stroke-width="2"/>
      </g>
      <g transform="translate(170, 250) rotate(-25) scale(0.45)">
        <path d="M0 -10 L9 8 L-9 8 Z" fill="none" stroke="#ffffff" stroke-width="2"/>
      </g>
      <g transform="translate(580, 360) rotate(35) scale(0.5)">
        <path d="M0 -10 L9 8 L-9 8 Z" fill="none" stroke="#ffffff" stroke-width="2"/>
      </g>
      
      <!-- Tiny Circles -->
      <circle cx="20" cy="200" r="4" fill="none" stroke="#ffffff" stroke-width="1.3"/>
      <circle cx="260" cy="270" r="3.5" fill="none" stroke="#ffffff" stroke-width="1.2"/>
      <circle cx="400" cy="230" r="4.5" fill="none" stroke="#ffffff" stroke-width="1.3"/>
      <circle cx="180" cy="350" r="3" fill="none" stroke="#ffffff" stroke-width="1.2"/>
      <circle cx="520" cy="220" r="4" fill="none" stroke="#ffffff" stroke-width="1.3"/>
      <circle cx="340" cy="350" r="3.5" fill="none" stroke="#ffffff" stroke-width="1.2"/>
      <circle cx="70" cy="420" r="4" fill="none" stroke="#ffffff" stroke-width="1.3"/>
      <circle cx="470" cy="480" r="3.5" fill="none" stroke="#ffffff" stroke-width="1.2"/>
      
      <!-- Scattered dots -->
      <circle cx="15" cy="65" r="1.5" fill="#ffffff"/>
      <circle cx="200" cy="25" r="1.2" fill="#ffffff"/>
      <circle cx="450" cy="35" r="1.5" fill="#ffffff"/>
      <circle cx="580" cy="180" r="1.3" fill="#ffffff"/>
      <circle cx="25" cy="250" r="1.5" fill="#ffffff"/>
      <circle cx="240" cy="180" r="1.2" fill="#ffffff"/>
      <circle cx="320" cy="300" r="1.5" fill="#ffffff"/>
      <circle cx="550" cy="320" r="1.3" fill="#ffffff"/>
      <circle cx="145" cy="320" r="1.5" fill="#ffffff"/>
      <circle cx="380" cy="380" r="1.2" fill="#ffffff"/>
      <circle cx="20" cy="450" r="1.5" fill="#ffffff"/>
      <circle cx="290" cy="400" r="1.3" fill="#ffffff"/>
      <circle cx="520" cy="550" r="1.5" fill="#ffffff"/>
      <circle cx="340" cy="580" r="1.2" fill="#ffffff"/>
      <circle cx="130" cy="580" r="1.4" fill="#ffffff"/>
      <circle cx="590" cy="580" r="1.3" fill="#ffffff"/>
      <circle cx="430" cy="290" r="1.5" fill="#ffffff"/>
      <circle cx="100" cy="120" r="1.2" fill="#ffffff"/>
      <circle cx="590" cy="450" r="1.4" fill="#ffffff"/>
      <circle cx="220" cy="420" r="1.3" fill="#ffffff"/>
      
      <!-- Plus signs -->
      <g transform="translate(330, 170)">
        <line x1="-5" y1="0" x2="5" y2="0" stroke="#ffffff" stroke-width="1.5" stroke-linecap="round"/>
        <line x1="0" y1="-5" x2="0" y2="5" stroke="#ffffff" stroke-width="1.5" stroke-linecap="round"/>
      </g>
      <g transform="translate(110, 220)">
        <line x1="-4" y1="0" x2="4" y2="0" stroke="#ffffff" stroke-width="1.3" stroke-linecap="round"/>
        <line x1="0" y1="-4" x2="0" y2="4" stroke="#ffffff" stroke-width="1.3" stroke-linecap="round"/>
      </g>
      <g transform="translate(500, 350)">
        <line x1="-5" y1="0" x2="5" y2="0" stroke="#ffffff" stroke-width="1.5" stroke-linecap="round"/>
        <line x1="0" y1="-5" x2="0" y2="5" stroke="#ffffff" stroke-width="1.5" stroke-linecap="round"/>
      </g>
      <g transform="translate(250, 530)">
        <line x1="-4" y1="0" x2="4" y2="0" stroke="#ffffff" stroke-width="1.3" stroke-linecap="round"/>
        <line x1="0" y1="-4" x2="0" y2="4" stroke="#ffffff" stroke-width="1.3" stroke-linecap="round"/>
      </g>
      
      <!-- Small zigzags -->
      <g transform="translate(570, 120)">
        <path d="M0 0 L6 8 L12 0 L18 8" fill="none" stroke="#ffffff" stroke-width="1.3" stroke-linecap="round"/>
      </g>
      <g transform="translate(200, 380)">
        <path d="M0 0 L5 6 L10 0 L15 6" fill="none" stroke="#ffffff" stroke-width="1.2" stroke-linecap="round"/>
      </g>
      <g transform="translate(400, 520)">
        <path d="M0 0 L6 7 L12 0" fill="none" stroke="#ffffff" stroke-width="1.3" stroke-linecap="round"/>
      </g>
      
      <!-- Small waves -->
      <g transform="translate(60, 500)">
        <path d="M0 0 Q6 -6 12 0 Q18 6 24 0" fill="none" stroke="#ffffff" stroke-width="1.3" stroke-linecap="round"/>
      </g>
      <g transform="translate(330, 500)">
        <path d="M0 0 Q5 -5 10 0 Q15 5 20 0" fill="none" stroke="#ffffff" stroke-width="1.2" stroke-linecap="round"/>
      </g>
      
      <!-- Hexagons -->
      <g transform="translate(550, 580) rotate(15) scale(0.5)">
        <path d="M0 -12 L10 -6 L10 6 L0 12 L-10 6 L-10 -6 Z" fill="none" stroke="#ffffff" stroke-width="2"/>
      </g>
      <g transform="translate(20, 380) rotate(-10) scale(0.45)">
        <path d="M0 -12 L10 -6 L10 6 L0 12 L-10 6 L-10 -6 Z" fill="none" stroke="#ffffff" stroke-width="2.2"/>
      </g>
      
    </pattern>
  </defs>
  <rect width="100%" height="100%" fill="url(#doodle)"/>
</svg>