<?xml version="1.0" encoding="UTF-8"?>
<svg width="120" height="120" viewBox="0 0 120 120" xmlns="http://www.w3.org/2000/svg">
  <defs>
    <pattern id="whatsappPattern" width="120" height="120" patternUnits="userSpaceOnUse">
      <rect width="120" height="120" fill="#0f1724" /> <!-- base dark color -->
      <!-- doodles: rounded shapes, chat bubble, paperclip, smile, clock -->
      <g fill="none" stroke="#0b1220" stroke-width="1.6" opacity="0.35" stroke-linecap="round" stroke-linejoin="round">
        <path d="M12 30c6-4 26-6 40-6s34 3 44 9" />
        <path d="M10 90c10-6 30-8 44-8s34 4 46 12" />
        <path d="M20 10c8 6 38 8 56 8s30-2 40 6" />
      </g>

      <!-- small icons -->
      <g opacity="0.25" transform="translate(6,6)" fill="#09121a">
        <circle cx="12" cy="18" r="3.6"/>
        <rect x="60" y="12" width="20" height="12" rx="2.5"/>
        <path d="M90 20c6 0 10 4 10 10s-4 10-10 10-10-4-10-10 4-10 10-10z"/>
      </g>

      <!-- a stylized chat bubble -->
      <g transform="translate(36,36) scale(0.7)" opacity="0.22" fill="none" stroke="#ffffff" stroke-width="1.2" stroke-linecap="round" stroke-linejoin="round">
        <rect x="0" y="0" width="48" height="34" rx="6" />
        <path d="M12 10h26" />
        <path d="M12 18h26" />
        <path d="M14 30l-6 6v-6" />
      </g>

      <!-- faint diagonal lines for texture -->
      <g stroke="#ffffff" stroke-width="0.5" opacity="0.03">
        <path d="M0 10 L120 10" />
        <path d="M0 40 L120 40" />
        <path d="M0 70 L120 70" />
        <path d="M0 100 L120 100" />
      </g>
    </pattern>
  </defs>

  <rect width="100%" height="100%" fill="url(#whatsappPattern)" />
</svg>
